<?xml version="1.0" encoding="UTF-8" standalone="no"?>
<!-- Created with Inkscape (http://www.inkscape.org/) -->

<svg xmlns:dc="http://purl.org/dc/elements/1.1/" xmlns:cc="http://creativecommons.org/ns#" xmlns:rdf="http://www.w3.org/1999/02/22-rdf-syntax-ns#" xmlns:svg="http://www.w3.org/2000/svg" xmlns="http://www.w3.org/2000/svg" xmlns:sodipodi="http://sodipodi.sourceforge.net/DTD/sodipodi-0.dtd" xmlns:inkscape="http://www.inkscape.org/namespaces/inkscape" viewBox="0 0 102.65832 41.628311" version="1.1" id="img-logo" inkscape:version="0.92.5 (2060ec1f9f, 2020-04-08)" sodipodi:docname="logo_vector_project.svg">
    <defs id="defs2" />
    <sodipodi:namedview id="base" pagecolor="#ffffff" bordercolor="#666666" borderopacity="1.0" inkscape:pageopacity="0.0" inkscape:pageshadow="2" inkscape:zoom="2.8284271" inkscape:cx="133.66995" inkscape:cy="52.413312" inkscape:document-units="mm" inkscape:current-layer="layer1" showgrid="false" inkscape:snap-global="false" fit-margin-top="0" fit-margin-left="0" fit-margin-right="0" fit-margin-bottom="0" inkscape:window-width="1920" inkscape:window-height="1015" inkscape:window-x="0" inkscape:window-y="0" inkscape:window-maximized="1" />
    <metadata id="metadata5">
        <rdf:RDF>
            <cc:Work rdf:about="">
                <dc:format>image/svg+xml</dc:format>
                <dc:type rdf:resource="http://purl.org/dc/dcmitype/StillImage" />
                <dc:title></dc:title>
            </cc:Work>
        </rdf:RDF>
    </metadata>
    <g inkscape:label="Camada 1" inkscape:groupmode="layer" id="layer1" transform="translate(-174.29025,-82.752638)">
        <path class="cifrao" d="m 186.99024,119.9707 v -4.40972 l -3.61597,-0.01 -3.61597,-0.01 -2.46944,-1.51633 -2.46945,-1.51634 -0.10303,-2.70726 -0.10304,-2.70726 h 2.66068 2.66067 v 1.5875 1.5875 h 4.58611 4.58611 v 7.05555 7.05556 h -1.05833 -1.05834 z" id="path72" />
        <path class="cifrao" d="m 191.22358,117.32486 v -7.05555 h 4.58611 4.58611 v -2.64583 -2.64584 h -4.58611 -4.58611 v -2.64583 -2.645835 h 4.64469 4.6447 l 2.597,1.618645 2.597,1.61864 -0.0979,4.79205 -0.0979,4.79205 -2.46945,1.51707 -2.46944,1.51708 -3.61597,0.01 -3.61598,0.01 v 4.40972 4.40972 h -1.05833 -1.05833 z" id="path70" />
        <path class="textos" d="M 222.26802,104.97764 V 94.394305 h -5.99722 -5.99722 v -2.64583 -2.64584 h 15.69861 15.69861 v 2.64584 2.64583 h -6.52639 -6.52639 v 10.583335 10.58334 h -3.175 -3.175 z" id="path68" />
        <path class="textos" d="M 245.55135,102.33181 V 89.102635 h 2.82223 2.82222 v 5.29167 5.29167 h 4.40972 4.40972 v 2.645835 2.64583 h -4.40972 -4.40972 v 5.29167 5.29167 h -2.82222 -2.82223 z" id="path66" />
        <path class="textos" d="m 271.65691,110.26931 v -5.29167 h -4.58611 -4.58611 v -2.64583 -2.645835 h 4.58611 4.58611 v -5.29167 -5.29167 h 2.64583 2.64584 v 13.229175 13.22917 h -2.64584 -2.64583 z" id="path64" />
        <path class="cifrao" d="m 177.02427,103.34844 -2.73402,-1.61845 v -4.692645 -4.69265 l 2.76503,-1.62103 2.76503,-1.62103 h 3.58497 3.58496 v -3.175 -3.174997 h 1.05834 1.05833 v 5.820837 5.82083 h -4.58611 -4.58611 v 2.64583 2.64584 h 4.40972 4.40972 v 2.645835 2.64583 l -4.49791,-0.005 -4.49792,-0.005 z" id="path62" />
        <path class="cifrao" d="m 200.3958,95.981805 v -1.5875 h -4.58611 -4.58611 v -5.82083 -5.820837 h 1.05833 1.05833 v 3.174997 3.175 l 3.61598,0.01 3.61597,0.01 2.46944,1.51634 2.46945,1.51633 0.10303,2.70727 0.10304,2.70727 h -2.66068 -2.66067 z" id="path126" />
    </g>
</svg>