<svg xmlns="http://www.w3.org/2000/svg" id="img-logo" viewBox="0 0 102.65832 41.628311">
    <path class="cifrao"
        d="M12.7 37.218v-4.41l-3.616-.01-3.616-.01-2.47-1.516L.53 29.756l-.103-2.708-.103-2.707h5.321v3.175h9.173v14.111H12.7zM16.933 34.572v-7.055h9.173v-5.292h-9.173v-5.292h9.29l2.597 1.619 2.597 1.619-.098 4.792-.098 4.792-2.47 1.517-2.469 1.517-3.616.01-3.616.01v8.82h-2.117z" />
    <path class="textos"
        d="M47.978 22.225V11.642H35.983V6.35h31.398v5.292H54.328v21.166h-6.35zM71.261 19.58V6.35h5.645v10.583H85.725v5.292h-8.82v10.583h-5.644zM97.367 27.517v-5.292h-9.173v-5.292h9.173V6.35h5.291v26.458h-5.291z" />
    <path class="cifrao"
        d="M2.734 20.596 0 18.977V9.592l2.765-1.621L5.53 6.35h7.17V0h2.117v11.642H5.644v5.291h8.82v5.292l-4.498-.005-4.498-.005zM26.106 13.23v-1.588h-9.173V0h2.117v6.35l3.616.01 3.616.01 2.47 1.516 2.469 1.517.103 2.707.103 2.707h-5.321z" />
</svg>