<svg id="Camada_1" data-name="Camada 1"
    xmlns="http://www.w3.org/2000/svg" viewBox="0 0 200.19 74.98">
    <defs>
        <style>.cls-1{fill:#2fb32f}.cls-2{fill:#fff}</style>
    </defs>
    <title>logo do TreasureHunt com os dizeres "$TH"</title>
    <path class="cls-1" d="M48.72,10.69V31.41H32.42V41H48.15v9.36c-9.47.52-18.83,1.59-26.46-5.67V28c6.5-5.78,14.33-6.85,22.88-5.72V10.69Z" transform="translate(-21.69 -10.69)"/>
    <path class="cls-1" d="M56.35,10.69V22.12c2.36,0,4.41.17,6.43,0a19,19,0,0,1,13,3.5c2.3,1.55,3.47,3,3.16,5.77a49.85,49.85,0,0,0,0,5.62H68.72l-.48-5.43h-16V10.69Z" transform="translate(-21.69 -10.69)"/>
    <path class="cls-2" d="M103.11,44.55h-8.3c-.49-6.29-1-12.54-1.49-19.06h54.8c-.49,6.29-1,12.61-1.49,19H138.4c-.33-3-.82-5.81-.92-8.66-.08-2.23-.93-3-3.13-3a54.62,54.62,0,0,1-5.71-.49V74.41c2.18,2.49,9-1.16,7.51,6.1H105.91c-1.35-1.76-.73-3.27,1.3-3.79,5.63-1.45,6.3-5.21,6.09-10.35-.41-10-.12-20.08-.12-30.13V32.66c-.49-.17-.59-.25-.7-.24-8.33.27-8.33.28-9,8.37C103.4,41.92,103.26,43.06,103.11,44.55Z" transform="translate(-21.69 -10.69)"/>
    <path class="cls-2" d="M158.16,27.34h11.41V48.67h18.16V59.13h-18V80.48H158.16Z" transform="translate(-21.69 -10.69)"/>
    <path class="cls-2" d="M221.89,80.51H210.42V59.36h-18V48.8h17.73V27.53h11.72Z" transform="translate(-21.69 -10.69)"/>
    <path class="cls-1" d="M56.39,69.49v16H52.72V60.08H68.21v-9.5H52.76v-9.5c5.48,0,10.88-.64,16,.23,3.4.58,6.43,3.32,9.61,5.12a.81.81,0,0,1,.33.59q0,8.29,0,16.6c-3.68,2-7.19,4.57-11.12,5.67C64.24,70.25,60.36,69.49,56.39,69.49Z" transform="translate(-21.69 -10.69)"/>
    <path class="cls-1" d="M48.43,59.83V85.49l-3.77.18V69.49a42.27,42.27,0,0,0-6.69.06c-5.68.94-10-1.82-14.31-4.78a3.25,3.25,0,0,1-1.32-2.14c-.16-2.62-.06-5.26-.06-8.08h10l.36,5.28Z" transform="translate(-21.69 -10.69)"/>
</svg>
